<svg xmlns="http://www.w3.org/2000/svg" width="1080" height="1080" viewBox="0 0 1080 1080" role="img" aria-labelledby="title desc">
  <title id="title">Isotipo Plan Salud Inteligente</title>
  <desc id="desc">Marca circular para perfiles sociales de Plan Salud Inteligente.</desc>
  <defs>
    <radialGradient id="bg" cx="50%" cy="42%" r="68%">
      <stop stop-color="#F8FAF7"/>
      <stop offset="0.72" stop-color="#EAF4F0"/>
      <stop offset="1" stop-color="#BFE9DD"/>
    </radialGradient>
    <linearGradient id="markFill" x1="258" y1="138" x2="828" y2="882" gradientUnits="userSpaceOnUse">
      <stop stop-color="#BFE9DD"/>
      <stop offset="0.52" stop-color="#5EC6AF"/>
      <stop offset="1" stop-color="#0B6257"/>
    </linearGradient>
    <filter id="shadow" x="-20%" y="-20%" width="140%" height="140%">
      <feDropShadow dx="0" dy="38" stdDeviation="28" flood-color="#092D28" flood-opacity="0.22"/>
    </filter>
  </defs>
  <rect width="1080" height="1080" fill="url(#bg)"/>
  <circle cx="540" cy="540" r="456" fill="#FFFFFF" opacity="0.82"/>
  <circle cx="540" cy="540" r="392" fill="#F8FAF7" filter="url(#shadow)"/>
  <path d="M540 192c111 82 218 104 324 112 12 309-94 503-324 586-230-83-336-277-324-586 106-8 213-30 324-112Z" fill="url(#markFill)"/>
  <path d="M540 290c75 52 148 70 224 79 0 209-72 340-224 404-152-64-224-195-224-404 76-9 149-27 224-79Z" fill="#F8FAF7" opacity="0.97"/>
  <path d="M540 354c50 0 92 38 105 88 48-21 106 2 126 52 28 70-21 146-231 259-210-113-259-189-231-259 20-50 78-73 126-52 13-50 55-88 105-88Z" fill="#0B6257"/>
  <path d="M428 562h88l39-88 69 176 40-88h81" fill="none" stroke="#BFE9DD" stroke-width="36" stroke-linecap="round" stroke-linejoin="round"/>
  <path d="M722 662c73-10 128-58 145-126 48 43 73 98 73 161 0 141-116 255-259 255-60 0-116-20-160-55 121-51 189-127 201-235Z" fill="#EB6F5F" opacity="0.96"/>
  <path d="M722 662c-5 44-22 84-48 119 68-10 124-49 156-105-33 3-69-2-108-14Z" fill="#F8FAF7" opacity="0.92"/>
</svg>
